#!OML:ASF I:\Actors\actors\Patient Classification 1\Patient 1\Session 1\Subject1.ASF
:FULLY-SPECIFIED
:DEGREES
634
root -0.521872 17.6085 8.11424 9.46343 -1.73022 -7.7519
lowerback 3.22631 0.88043 5.93426
upperback -9.75587 1.9333 1.66986
thorax -12.2379 0.463208 -1.75889
lowerneck -15.7349 -0.957466 2.72242
upperneck 27.6137 -1.53433 -2.16222
head 11.5658 -0.68748 -1.48759
rclavicle 3.47873e-016 3.91606e-014
rhumerus -3.94802 46.5289 -70.5095
rradius 89.7297
rwrist -22.1567
rhand 5.27802 -61.1915
rfingers 7.12502
rthumb 30.6351 631.338
lclavicle 3.47873e-016 3.91606e-014
lhumerus -21.9895 -50.8975 79.7546
lradius 84.2537
lwrist 56.9659
lhand -26.407 15.4624
lfingers 7.12502
lthumb 0.152664 45.4421
rfemur -3.63449 25.0508 23.6293
rtibia 2.5277
rfoot -12.8572 -25.873
rtoes 2.43308
lfemur 3.79523 -41.765 -12.4124
ltibia -3.57061
lfoot -18.421 50.9601
ltoes 9.11697
635
root -0.515391 17.6075 8.11889 9.32883 -2.00004 -7.55706
lowerback 3.34431 0.870895 5.94088
upperback -9.80152 1.91927 1.54416
thorax -12.3609 0.443117 -1.89975
lowerneck -15.5126 -0.882361 2.89751
upperneck 27.8286 -1.43193 -2.29333
head 11.604 -0.637729 -1.55271
rclavicle -1.49585e-014 2.72335e-014
rhumerus 0.898856 44.1863 -66.029
rradius 95.3312
rwrist -21.6131
rhand 3.30835 -61.5812
rfingers 7.12502
rthumb 28.7552 630.613
lclavicle -1.49585e-014 2.72335e-014
lhumerus -19.7625 -49.3106 77.4851
lradius 85.9648
lwrist 56.032
lhand -26.046 14.4721
lfingers 7.12502
lthumb 0.501335 44.4513
rfemur -3.47946 25.1099 23.4511
rtibia 2.55789
rfoot -12.7564 -25.8023
rtoes 1.91769
lfemur 4.0726 -41.4021 -12.8842
ltibia -3.59813
lfoot -17.8513 50.9366
ltoes 8.52909
636
root -0.511846 17.6132 8.12413 9.42741 -2.23345 -7.36199
lowerback 3.15278 0.8872 5.89859
upperback -9.82352 1.91153 1.44409
thorax -12.2649 0.439581 -1.97999
lowerneck -15.3693 -0.766736 3.2183
upperneck 27.9384 -1.25191 -2.6307
head 11.6172 -0.564614 -1.70756
rclavicle -2.73329e-015 4.77083e-015
rhumerus 4.95706 40.5406 -62.9577
rradius 100.365
rwrist -20.6134
rhand 1.22928 -60.5961
rfingers 7.12502
rthumb 26.7673 631.278
lclavicle -2.73329e-015 4.77083e-015
lhumerus -17.8483 -47.9317 75.6002
lradius 87.4963
lwrist 55.1428
lhand -25.8579 13.9623
lfingers 7.12502
lthumb 0.682974 43.941
rfemur -3.66191 25.1564 23.145
rtibia 2.65801
rfoot -12.6409 -25.7268
rtoes 1.3589
lfemur 4.02656 -41.2419 -13.1008
ltibia -3.64997
lfoot -17.7326 51.0077
ltoes 8.32363
637
root -0.507111 17.6245 8.13016 9.62983 -2.30555 -7.18225
lowerback 3.03984 0.868048 5.77839
upperback -9.95403 1.8726 1.45485
thorax -12.3527 0.428507 -1.89398
lowerneck -15.2141 -0.639444 3.35919
upperneck 28.0461 -1.01392 -2.92601
head 11.6322 -0.478595 -1.80799
rclavicle -8.54774e-015 -2.26615e-014
rhumerus 8.83773 36.8106 -60.1327
rradius 105.589
rwrist -19.6688
rhand -0.421937 -59.5299
rfingers 7.12502
rthumb 25.1862 632.112
lclavicle -8.54774e-015 -2.26615e-014
lhumerus -16.669 -47.0132 74.5418
lradius 88.5268
lwrist 54.3594
lhand -26.1756 12.6045
lfingers 7.12502
lthumb 0.376098 42.5839
rfemur -3.94729 25.2125 22.7964
rtibia 2.70819
rfoot -12.5771 -25.7753
rtoes 0.952737
lfemur 3.70461 -41.1487 -13.1045
ltibia -3.62006
lfoot -18.0756 50.918
ltoes 8.75933
638
root -0.495651 17.6349 8.13365 9.693 -2.00422 -7.40825
lowerback 3.17553 0.747509 6.203
upperback -10.0615 1.78012 1.58235
thorax -12.5732 0.342059 -1.98076
lowerneck -15.1312 -0.529135 3.45823
upperneck 28.124 -0.784828 -3.23926
head 11.6513 -0.403665 -1.90974
rclavicle -6.55989e-015 2.74323e-014
rhumerus 12.1913 32.4668 -58.269
rradius 110.785
rwrist -18.5114
rhand -1.28482 -57.0216
rfingers 7.12502
rthumb 24.3592 634.507
lclavicle -6.55989e-015 2.74323e-014
lhumerus -15.7689 -46.4986 73.8521
lradius 89.034
lwrist 53.3539
lhand -26.1595 12.127
lfingers 7.12502
lthumb 0.391669 42.1064
rfemur -3.93906 25.0345 23.0387
rtibia 2.63202
rfoot -12.6256 -25.9013
rtoes 0.928188
lfemur 3.4265 -40.9179 -12.6477
ltibia -3.5797
lfoot -17.8107 50.4657
ltoes 8.64637
639
root -0.47965 17.6376 8.12995 9.57699 -1.38147 -8.09749
lowerback 3.63577 0.525985 7.17388
upperback -10.1475 1.65308 1.8482
thorax -12.9825 0.186583 -2.21754
lowerneck -15.0513 -0.452861 3.54531
upperneck 28.143 -0.588729 -3.59639
head 11.6475 -0.350976 -2.02949
rclavicle 2.26118e-015 7.7526e-015
rhumerus 14.8802 28.0689 -57.4781
rradius 115.905
rwrist -15.3494
rhand -1.74815 -55.2433
rfingers 7.12502
rthumb 23.9149 636.226
lclavicle 2.26118e-015 7.7526e-015
lhumerus -15.132 -46.4187 73.4696
lradius 89.2388
lwrist 53.181
lhand -25.9496 12.4788
lfingers 7.12502
lthumb 0.59439 42.4577
rfemur -3.65621 24.7544 23.9577
rtibia 2.52831
rfoot -12.7643 -26.1536
rtoes 1.25913
lfemur 3.20256 -40.3959 -11.6434
ltibia -3.572
lfoot -16.6288 49.6081
ltoes 7.42006
640
root -0.472399 17.6413 8.12386 9.52688 -0.80623 -8.25827
lowerback 4.00253 0.282309 7.38431
upperback -10.2602 1.41068 2.04288
thorax -13.3794 0.047 -2.08748
lowerneck -14.8983 -0.387538 3.56008
upperneck 28.0825 -0.396298 -3.92255
head 11.5994 -0.303728 -2.12337
rclavicle -1.68967e-015 -4.17448e-015
rhumerus 16.4308 24.2026 -57.8997
rradius 120.304
rwrist -12.3291
rhand -5.73525 -50.0239
rfingers 7.12502
rthumb 20.0868 640.995
lclavicle -1.68967e-015 -4.17448e-015
lhumerus -14.8415 -46.7392 73.3548
lradius 89.2744
lwrist 54.4916
lhand -25.8873 12.3828
lfingers 7.12502
lthumb 0.654565 42.3615
rfemur -3.51219 24.7998 24.2102
rtibia 2.42223
rfoot -12.9311 -26.7511
rtoes 1.67921
lfemur 2.70793 -39.9973 -11.0943
ltibia -3.39807
lfoot -15.6519 48.8008
ltoes 6.34855
641
root -0.475468 17.6469 8.12045 9.5707 -0.400418 -7.84487
lowerback 4.08681 0.132477 6.73328
upperback -10.3048 1.15596 2.1128
thorax -13.506 -0.00647263 -1.61107
lowerneck -14.8006 -0.381883 3.53837
upperneck 27.8539 -0.29746 -4.20782
head 11.4942 -0.298065 -2.20537
rclavicle -4.09993e-016 2.31584e-014
rhumerus 17.6902 21.0687 -58.4638
rradius 124.273
rwrist -10.4934
rhand -12.2534 -46.5943
rfingers 7.12502
rthumb 13.8128 643.884
lclavicle -4.09993e-016 2.31584e-014
lhumerus -14.4103 -47.2243 73.2773
lradius 88.8781
lwrist 55.4629
lhand -24.9686 12.3939
lfingers 7.12502
lthumb 1.54187 42.3681
rfemur -3.51991 25.0328 23.732
rtibia 2.30319
rfoot -13.0931 -27.469
rtoes 2.04013
lfemur 2.13662 -39.9082 -11.1969
ltibia -3.13921
lfoot -15.1509 48.3265
ltoes 5.74768
642
root -0.476162 17.6464 8.11446 9.48173 -0.0113524 -7.74556
lowerback 4.28524 0.0545636 6.45001
upperback -10.2298 1.04155 2.1811
thorax -13.5499 -0.0263052 -1.36332
lowerneck -14.8977 -0.44435 3.54473
upperneck 27.5631 -0.330802 -4.43333
head 11.399 -0.342717 -2.28861
rclavicle -3.44146e-015 1.03368e-014
rhumerus 18.0732 18.8977 -59.2549
rradius 128.382
rwrist -8.16391
rhand -19.202 -45.2098
rfingers 7.12502
rthumb 7.11012 644.93
lclavicle -3.44146e-015 1.03368e-014
lhumerus -13.89 -47.9138 73.2666
lradius 88.2692
lwrist 55.6784
lhand -23.9458 12.6418
lfingers 7.12502
lthumb 2.52969 42.6066
rfemur -3.38089 25.0453 23.6857
rtibia 2.21744
rfoot -13.2336 -27.8965
rtoes 2.30432
lfemur 1.86939 -39.8041 -11.1413
ltibia -2.9828
lfoot -14.6141 47.9306
ltoes 5.04178
643
root -0.473055 17.6431 8.10666 9.33744 0.262044 -7.86014
lowerback 4.57675 0.0136522 6.44704
upperback -10.0857 1.0112 2.23975
thorax -13.5651 -0.0342519 -1.2958
lowerneck -15.2312 -0.500655 3.6198
upperneck 27.3234 -0.391224 -4.62697
head 11.37 -0.389975 -2.37945
rclavicle -2.57178e-015 2.08724e-015
rhumerus 17.6097 17.5519 -60.5191
rradius 132.824
rwrist -5.25115
rhand -24.2368 -44.6126
rfingers 7.12502
rthumb 2.24869 645.42
lclavicle -2.57178e-015 2.08724e-015
lhumerus -13.6738 -48.6953 73.4524
lradius 87.7703
lwrist 55.4158
lhand -23.8582 12.9153
lfingers 7.12502
lthumb 2.61429 42.879
rfemur -3.22346 24.9196 23.888
rtibia 2.22086
rfoot -13.3495 -28.0019
rtoes 2.4676
lfemur 1.79652 -39.6463 -10.9941
ltibia -2.87366
lfoot -14.0841 47.644
ltoes 4.31002
